<svg width="16" height="16" viewBox="0 0 16 16" fill="none" xmlns="http://www.w3.org/2000/svg">
<g id="c_arrow-turn-down-left">
<path id="Vector" d="M13.1838 3.01558C13.1838 2.68411 13.4505 2.41745 13.7819 2.41745C14.1134 2.41745 14.3801 2.68411 14.3801 3.01558V7.20249C14.3801 8.41371 13.3981 9.39564 12.1869 9.39564H3.66106L5.82928 11.5639C6.06355 11.7981 6.06355 12.1769 5.82928 12.4087C5.59501 12.6405 5.2162 12.643 4.98442 12.4087L1.79439 9.22118C1.56012 8.98692 1.56012 8.6081 1.79439 8.37632L4.98442 5.1838C5.21869 4.94953 5.59751 4.94953 5.82928 5.1838C6.06106 5.41807 6.06355 5.79688 5.82928 6.02866L3.66106 8.19688H12.1869C12.7377 8.19688 13.1838 7.75078 13.1838 7.2V3.01558Z" fill="white"/>
</g>
</svg>
