<svg width="16" height="16" viewBox="0 0 16 16" fill="none" xmlns="http://www.w3.org/2000/svg">
<g id="c_camera-viewfinder">
<path id="Vector" d="M3.01557 1.61994H5.00934C5.34081 1.61994 5.60747 1.8866 5.60747 2.21807C5.60747 2.54953 5.34081 2.8162 5.00934 2.8162H3.01557C2.90592 2.8162 2.8162 2.90592 2.8162 3.01558V5.00935C2.8162 5.34081 2.54953 5.60748 2.21806 5.60748C1.8866 5.60748 1.61993 5.34081 1.61993 5.00935V3.01558C1.61993 2.24548 2.24548 1.61994 3.01557 1.61994ZM10.9907 1.61994H12.9844C13.7545 1.61994 14.3801 2.24548 14.3801 3.01558V5.00935C14.3801 5.34081 14.1134 5.60748 13.7819 5.60748C13.4505 5.60748 13.1838 5.34081 13.1838 5.00935V3.01558C13.1838 2.90592 13.0941 2.8162 12.9844 2.8162H10.9907C10.6592 2.8162 10.3925 2.54953 10.3925 2.21807C10.3925 1.8866 10.6592 1.61994 10.9907 1.61994ZM2.8162 10.9907V12.9844C2.8162 13.0941 2.90592 13.1838 3.01557 13.1838H5.00934C5.34081 13.1838 5.60747 13.4505 5.60747 13.7819C5.60747 14.1134 5.34081 14.3801 5.00934 14.3801H3.01557C2.24548 14.3801 1.61993 13.7545 1.61993 12.9844V10.9907C1.61993 10.6592 1.8866 10.3925 2.21806 10.3925C2.54953 10.3925 2.8162 10.6592 2.8162 10.9907ZM14.3801 10.9907V12.9844C14.3801 13.7545 13.7545 14.3801 12.9844 14.3801H10.9907C10.6592 14.3801 10.3925 14.1134 10.3925 13.7819C10.3925 13.4505 10.6592 13.1838 10.9907 13.1838H12.9844C13.0941 13.1838 13.1838 13.0941 13.1838 12.9844V10.9907C13.1838 10.6592 13.4505 10.3925 13.7819 10.3925C14.1134 10.3925 14.3801 10.6592 14.3801 10.9907ZM5.9514 4.61558C6.10841 4.24922 6.46978 4.01246 6.86853 4.01246H9.13395C9.53271 4.01246 9.89408 4.24922 10.0511 4.61558L10.1333 4.80997H10.3925C11.2723 4.80997 11.9875 5.52523 11.9875 6.40498V9.59502C11.9875 10.4748 11.2723 11.19 10.3925 11.19H5.60747C4.72772 11.19 4.01246 10.4748 4.01246 9.59502V6.40498C4.01246 5.52523 4.72772 4.80997 5.60747 4.80997H5.86915L5.9514 4.61558ZM6.99813 5.20872L6.81121 5.64486C6.71651 5.86417 6.49968 6.00623 6.26043 6.00623H5.60747C5.38816 6.00623 5.20872 6.18567 5.20872 6.40498V9.59502C5.20872 9.81433 5.38816 9.99377 5.60747 9.99377H10.3925C10.6118 9.99377 10.7913 9.81433 10.7913 9.59502V6.40498C10.7913 6.18567 10.6118 6.00623 10.3925 6.00623H9.73707C9.49782 6.00623 9.28099 5.86417 9.18629 5.64486L9.00187 5.20872H6.99813ZM6.60436 8C6.60436 7.62985 6.7514 7.27487 7.01313 7.01313C7.27486 6.7514 7.62985 6.60436 8 6.60436C8.37014 6.60436 8.72513 6.7514 8.98686 7.01313C9.24859 7.27487 9.39563 7.62985 9.39563 8C9.39563 8.37015 9.24859 8.72513 8.98686 8.98687C8.72513 9.2486 8.37014 9.39564 8 9.39564C7.62985 9.39564 7.27486 9.2486 7.01313 8.98687C6.7514 8.72513 6.60436 8.37015 6.60436 8Z" fill="white"/>
</g>
</svg>
