<svg width="16" height="16" viewBox="0 0 16 16" fill="none" xmlns="http://www.w3.org/2000/svg">
<g id="c_route">
<path id="Vector" d="M12.5508 5.50031C12.3713 5.78692 12.1769 6.06355 11.9875 6.31526C11.8006 6.06355 11.6037 5.78692 11.4243 5.50031C10.9832 4.79252 10.7913 4.26916 10.7913 4.01246C10.7913 3.35203 11.3271 2.8162 11.9875 2.8162C12.648 2.8162 13.1838 3.35203 13.1838 4.01246C13.1838 4.26916 12.9919 4.79252 12.5508 5.50031ZM12.2716 7.87539C12.9072 7.13022 14.3801 5.26355 14.3801 4.01246C14.3801 2.69159 13.3084 1.61994 11.9875 1.61994C10.6667 1.61994 9.59501 2.69159 9.59501 4.01246C9.59501 4.84237 10.2405 5.93894 10.8611 6.80374H9.79439C8.58317 6.80374 7.60124 7.78567 7.60124 8.99688C7.60124 10.2081 8.58317 11.19 9.79439 11.19H12.1869C12.7377 11.19 13.1838 11.6361 13.1838 12.1869C13.1838 12.7377 12.7377 13.1838 12.1869 13.1838H6.05109C5.9838 13.2785 5.91402 13.3732 5.84673 13.4629C5.58006 13.8168 5.31588 14.1333 5.09906 14.3801H12.1869C13.3981 14.3801 14.3801 13.3981 14.3801 12.1869C14.3801 10.9757 13.3981 9.99377 12.1869 9.99377H9.79439C9.24361 9.99377 8.7975 9.54766 8.7975 8.99688C8.7975 8.44611 9.24361 8 9.79439 8H11.9103C12.0374 8.02741 12.1769 7.98505 12.2716 7.87539ZM4.58317 11.7981C4.40124 12.0723 4.20187 12.3389 4.01246 12.5757C3.82305 12.3389 3.62367 12.0723 3.44174 11.7981C3.00062 11.1327 2.8162 10.6393 2.8162 10.3925C2.8162 9.73209 3.35202 9.19626 4.01246 9.19626C4.67289 9.19626 5.20872 9.73209 5.20872 10.3925C5.20872 10.6393 5.0243 11.1327 4.58317 11.7981ZM5.05669 13.1838C5.70218 12.3589 6.40498 11.2573 6.40498 10.3925C6.40498 9.07165 5.33333 8 4.01246 8C2.69159 8 1.61993 9.07165 1.61993 10.3925C1.61993 11.6511 3.11028 13.4081 3.73831 14.091C3.88785 14.253 4.13707 14.253 4.28411 14.091C4.2866 14.0885 4.28909 14.086 4.29158 14.0835C4.29906 14.076 4.30654 14.066 4.31401 14.0586C4.3838 13.9813 4.46355 13.8916 4.55078 13.7919C4.55327 13.7894 4.55327 13.7894 4.55576 13.7869C4.70778 13.6125 4.87975 13.4081 5.0542 13.1838H5.05669Z" fill="white"/>
</g>
</svg>
