<svg width="16" height="16" viewBox="0 0 16 16" fill="none" xmlns="http://www.w3.org/2000/svg">
<g id="c_stop-sign">
<g id="Vector">
<path d="M1.3149 9.90107C1.16401 9.71249 1.07216 9.52998 1 9.3414L2.05623 9.08589C2.18744 9.29881 2.33833 9.49957 2.52858 9.62123H3.0731C3.0731 9.62123 3.15839 9.57257 3.25679 9.47523C3.36176 9.3779 3.41425 9.31098 3.41425 9.3049V8.81214C3.41425 8.81214 3.40769 8.76955 3.388 8.76347L1.89222 8.17946C1.37395 8.05171 1.12465 7.60153 1.12465 7.18178V6.73161C1.12465 6.50043 1.15089 6.34227 1.32146 6.12935C1.45923 5.94684 1.74789 5.67917 1.93158 5.56359C2.1612 5.4115 2.33177 5.38108 2.58107 5.38108H3.02718C3.6045 5.38108 4.03749 5.81909 4.25398 6.10501C4.40487 6.30576 4.49672 6.4761 4.56888 6.66469L3.51265 6.92019C3.38144 6.70727 3.23711 6.50652 3.0403 6.38485H2.60731C2.60731 6.38485 2.52202 6.4396 2.42362 6.53085C2.32521 6.6221 2.26617 6.6951 2.26617 6.70119V7.13919C2.26617 7.1757 2.29241 7.18786 2.29241 7.18786L3.79475 7.78404C4.30647 7.91179 4.56232 8.36196 4.56232 8.78172V9.27448C4.56232 9.50565 4.53608 9.66382 4.36551 9.87674C4.22774 10.0592 3.93908 10.3269 3.75539 10.4425C3.52577 10.5946 3.3552 10.625 3.1059 10.625H2.54171C1.96439 10.625 1.53796 10.187 1.3149 9.90107ZM7.47516 6.42135H6.75352V10.5763H5.612V6.42135H4.88379V5.41758H7.47516V6.42135ZM8.63636 10.4425C8.43955 10.3147 8.15089 10.0471 8.02624 9.87674C7.86223 9.66382 7.82943 9.50565 7.82943 9.27448V6.72552C7.82943 6.49435 7.85567 6.33618 8.02624 6.12326C8.16401 5.94076 8.45267 5.67309 8.63636 5.5575C8.86598 5.40542 9.03655 5.375 9.28585 5.375H9.83037C10.0797 5.375 10.2502 5.39933 10.4798 5.5575C10.6767 5.68525 10.9653 5.95293 11.09 6.12326C11.254 6.33618 11.2868 6.49435 11.2868 6.72552V9.27448C11.2868 9.50565 11.2605 9.66382 11.09 9.87674C10.9522 10.0592 10.6635 10.3269 10.4798 10.4425C10.2502 10.5946 10.0797 10.625 9.83037 10.625H9.28585C9.03655 10.625 8.86598 10.6007 8.63636 10.4425ZM9.11528 9.46915C9.22024 9.56648 9.29241 9.61515 9.29897 9.61515H9.80412C9.80412 9.61515 9.88941 9.56648 9.98782 9.46915C10.0928 9.37181 10.1453 9.3049 10.1453 9.29881V6.70119C10.1453 6.70119 10.0862 6.6221 9.98782 6.53085C9.88941 6.4396 9.81068 6.38485 9.80412 6.38485H9.29897C9.29897 6.38485 9.21368 6.4396 9.11528 6.53085C9.01031 6.62819 8.95783 6.6951 8.95783 6.70119V9.29881C8.95783 9.29881 9.01031 9.3779 9.11528 9.46915ZM15 6.7681V7.3217C15 7.55287 14.9738 7.71104 14.8032 7.92396C14.6654 8.10646 14.3768 8.37413 14.1931 8.48972C13.9634 8.6418 13.7929 8.67222 13.5436 8.67222H12.9531V10.5763H11.8182V5.41758H13.5436C13.7929 5.41758 13.9634 5.44192 14.1931 5.60009C14.3899 5.72784 14.672 5.99551 14.8032 6.16585C14.9672 6.37877 15 6.53693 15 6.7681ZM13.865 6.74377C13.865 6.74377 13.806 6.66469 13.7076 6.57344C13.6092 6.48218 13.5305 6.42743 13.5239 6.42743H12.9531V7.66845H13.5239C13.5239 7.66845 13.6092 7.61979 13.7076 7.52245C13.806 7.42512 13.865 7.3582 13.865 7.35211V6.74377Z" fill="white"/>
<path d="M13.6875 4.0625H2.3125L4.9375 1H11.0625L13.6875 4.0625Z" fill="white"/>
<path d="M13.6875 11.9375H2.3125L4.9375 15H11.0625L13.6875 11.9375Z" fill="white"/>
</g>
</g>
</svg>
