<svg width="16" height="16" viewBox="0 0 16 16" fill="none" xmlns="http://www.w3.org/2000/svg">
<g id="c_xmark-large">
<path id="Vector" d="M3.43925 2.5919C3.20498 2.36012 2.82617 2.36012 2.5919 2.5919C2.35763 2.82368 2.36012 3.20498 2.5919 3.43925L7.15265 8L2.5919 12.5607C2.35763 12.795 2.35763 13.1738 2.5919 13.4056C2.82617 13.6374 3.20498 13.6399 3.43676 13.4056L7.99751 8.84486L12.5607 13.4081C12.795 13.6424 13.1738 13.6424 13.4056 13.4081C13.6374 13.1738 13.6399 12.795 13.4056 12.5632L8.84486 8.00249L13.4081 3.43925C13.6424 3.20498 13.6424 2.82617 13.4081 2.59439C13.1738 2.36262 12.795 2.36012 12.5632 2.59439L8.00249 7.15514L3.43925 2.5919Z" fill="white"/>
</g>
</svg>
